<svg width="30" height="21" viewBox="0 0 30 21" fill="none" xmlns="http://www.w3.org/2000/svg">
<path d="M16.9015 0.940594C16.9759 0.500586 16.6746 0.0844523 16.2285 0.0111149C15.7825 -0.0622161 15.3607 0.23502 15.2863 0.675029L12.0113 20.0594C11.9369 20.4994 12.2382 20.9155 12.6843 20.9889C13.1303 21.0622 13.5522 20.765 13.6265 20.325L14.7236 13.8313C16.0439 14.021 17.4691 14.0839 18.5928 14.8613C19.288 15.354 20.0919 15.6766 20.9383 15.8028C22.5195 16.0383 23.9345 15.1805 25.4965 15.4251L27.6073 15.7385C28.0327 15.8018 28.475 15.4797 28.5391 15.06L29.9866 5.47445L29.9932 5.46799C30.0523 5.04751 29.7202 4.61486 29.2939 4.55692L27.1832 4.24354C25.6066 4.0129 24.1888 4.8456 22.6267 4.61377C21.926 4.50978 21.2593 4.24703 20.679 3.84616C19.4693 3.01079 18.0281 2.87234 16.6085 2.67504L16.9015 0.940594ZM15.9359 6.65608L16.4741 3.47059C17.4557 3.60164 18.4938 3.67807 19.4033 4.06585L18.9207 7.24042C17.9865 6.86446 16.9336 6.7905 15.9359 6.65608ZM14.8584 13.0337L15.3969 9.84631C16.4124 9.98531 17.4884 10.0541 18.4405 10.4401L18.9313 7.24769C20.0087 7.68289 20.8293 8.43141 22.0315 8.60663L22.5228 5.40822C23.7313 5.5883 24.7311 5.12281 25.8928 5.03022L25.4016 8.20602C24.2387 8.30393 23.2328 8.78857 22.0283 8.60986L21.56 11.8048C20.3545 11.6286 19.5326 10.876 18.4503 10.4417L17.959 13.6336C16.9851 13.2484 15.8915 13.1794 14.8584 13.0337ZM21.5615 11.8053C22.7632 11.985 23.7739 11.4967 24.9365 11.4012L25.4016 8.20602C26.4733 8.1086 27.5708 8.38588 28.6242 8.54363L28.1657 11.7356C27.1106 11.5788 26.0112 11.3015 24.9381 11.4012L24.4469 14.5932C23.2864 14.6702 22.2606 15.1752 21.0703 14.997L21.5615 11.8053Z" fill="white"/>
<path d="M3.26769 7.62706C3.31726 7.33372 3.11638 7.0563 2.81902 7.00741C2.52166 6.95852 2.24043 7.15668 2.19087 7.45002L0.00751265 20.3729C-0.0420496 20.6663 0.15883 20.9437 0.456193 20.9926C0.753545 21.0415 1.03478 20.8433 1.08433 20.55L1.81575 16.2209C2.69594 16.3473 3.64606 16.3892 4.39517 16.9076C4.85866 17.236 5.39461 17.4511 5.95888 17.5352C7.01302 17.6922 7.95631 17.1204 8.99769 17.2834L10.4049 17.4923C10.6885 17.5345 10.9833 17.3198 11.026 17.04L11.9911 10.6496L11.9954 10.6453C12.0349 10.365 11.8135 10.0766 11.5293 10.0379L10.1221 9.82903C9.07105 9.67527 8.1259 10.2304 7.08444 10.0758C6.61734 10.0065 6.17289 9.83135 5.78597 9.56411C4.97952 9.0072 4.01875 8.91489 3.07234 8.78336L3.26769 7.62706ZM2.62393 11.4374L2.98273 9.31373C3.63712 9.4011 4.32919 9.45204 4.93555 9.71057L4.61379 11.8269C3.99099 11.5763 3.28907 11.527 2.62393 11.4374ZM1.90558 15.6891L2.2646 13.5642C2.94161 13.6569 3.65893 13.7027 4.29364 13.96L4.62085 11.8318C5.33911 12.1219 5.88619 12.6209 6.6877 12.7378L7.0152 10.6055C7.82088 10.7255 8.48743 10.4152 9.26188 10.3535L8.93437 12.4707C8.15916 12.536 7.48851 12.859 6.68551 12.7399L6.37332 14.8699C5.56966 14.7524 5.02175 14.2507 4.30019 13.9611L3.97269 16.0891C3.32337 15.8322 2.59434 15.7863 1.90558 15.6891ZM6.37436 14.8702C7.17548 14.99 7.84927 14.6644 8.62434 14.6008L8.93437 12.4707C9.64888 12.4057 10.3805 12.5906 11.0828 12.6958L10.7771 14.8237C10.0738 14.7192 9.34081 14.5343 8.62543 14.6008L8.29792 16.7288C7.52424 16.7802 6.84041 17.1168 6.04688 16.998L6.37436 14.8702Z" fill="white"/>
</svg>
