<svg width="35" height="35" viewBox="0 0 35 35" fill="none" xmlns="http://www.w3.org/2000/svg">
<path d="M34.2554 26.9661C33.7515 26.1371 33.0558 25.4417 32.2271 24.9388H32.2228L24.3609 20.1014C24.4484 19.9691 24.5359 19.8385 24.612 19.7044C25.4807 18.196 26.0236 16.5217 26.2054 14.7899C26.2059 14.7806 26.2059 14.7712 26.2054 14.7618C26.2494 14.3388 26.2716 13.9137 26.2719 13.4883V7.8069C26.2719 7.68594 26.2719 7.56586 26.2631 7.44666C26.2796 7.34653 26.2728 7.24392 26.243 7.1469C26.0758 5.19848 25.1855 3.38364 23.7478 2.06055C22.3102 0.737456 20.4297 0.00223992 18.4774 0H16.3625C14.4104 0.00242176 12.5301 0.737584 11.0925 2.06045C9.65497 3.38332 8.76453 5.19784 8.59687 7.14602C8.57858 7.20987 8.56916 7.27594 8.56887 7.34236C8.5691 7.3773 8.57203 7.41217 8.57762 7.44666C8.57237 7.56586 8.56887 7.68594 8.56887 7.8069V13.4857C8.5691 13.9105 8.59129 14.335 8.63538 14.7575C8.63538 14.768 8.63538 14.7776 8.63538 14.7881C8.81731 16.5197 9.36014 18.1936 10.2287 19.7017C10.3162 19.8569 10.4177 20.0129 10.5254 20.168L2.77375 24.9388C1.03687 26.0063 0 27.7611 0 29.6324V34.2988C0 34.4848 0.0737499 34.6631 0.205025 34.7946C0.336301 34.9261 0.514348 35 0.7 35H34.3C34.4857 35 34.6637 34.9261 34.795 34.7946C34.9263 34.6631 35 34.4848 35 34.2988V29.6315C34.996 28.6921 34.7387 27.7712 34.2554 26.9661ZM12.0899 19.8998C11.8474 19.6209 11.6315 19.3198 11.445 19.0006C10.9587 18.1569 10.5862 17.2523 10.3372 16.3106C12.278 17.5009 14.7674 18.1635 17.4247 18.1635C20.0821 18.1635 22.5689 17.5009 24.5123 16.3106C24.2633 17.2523 23.8908 18.1569 23.4045 19.0006C23.2308 19.2979 23.0314 19.5795 22.8086 19.842C21.8846 20.9437 20.2011 22.2322 18.249 22.5468C18.044 22.5805 17.8371 22.6019 17.6295 22.6108C17.5613 22.6108 17.4939 22.6152 17.4274 22.6152C17.1515 22.6146 16.8762 22.5917 16.604 22.5468C14.9975 22.2891 13.2694 21.275 12.0899 19.8998ZM11.3076 3.89249L14.0525 6.64117H10.0774C10.2621 5.63957 10.684 4.69697 11.3076 3.89249V3.89249ZM24.8754 8.04355V13.4857C24.8754 13.7723 24.8623 14.058 24.8404 14.3429C23.0598 15.861 20.3122 16.7611 17.4221 16.7611C14.532 16.7611 11.7836 15.861 10.0039 14.3446C9.982 14.0598 9.96887 13.774 9.96887 13.4874V8.04355H24.8754ZM23.5375 3.89162C24.1618 4.69616 24.584 5.63912 24.7686 6.64117H20.7917L23.5375 3.89162ZM17.1885 24.0132C17.3451 24.0193 17.4991 24.0193 17.6557 24.0132V33.5792H17.1885V24.0132ZM19.0557 23.8107C20.6412 23.4146 22.253 22.4601 23.4692 21.197L30.1875 25.3314C29.8612 25.5213 29.5596 25.7509 29.2897 26.0151C27.7847 27.4736 26.9771 30.0224 26.8853 33.5976H19.0557V23.8107ZM18.4809 1.40238C19.9731 1.40114 21.4183 1.92477 22.5645 2.8819L18.8125 6.64117H16.0326L12.2797 2.88278C13.4254 1.9252 14.8704 1.40122 16.3625 1.40238H18.4809ZM1.4 33.5976V29.6324C1.4 28.3176 2.114 27.0704 3.31975 26.2535C3.61025 26.3008 4.23412 26.4796 4.86762 27.1598C5.66475 28.0161 6.60625 29.8226 6.71038 33.5976H1.4ZM5.70675 26.0151C5.43697 25.7512 5.13574 25.5215 4.80988 25.3314L11.4345 21.2566C12.6437 22.489 14.2345 23.4207 15.7885 23.809V33.5976H8.11125C8.01937 30.0224 7.21175 27.4736 5.70675 26.0151V26.0151ZM33.6 33.5976H28.2896C28.3937 29.8235 29.3352 28.0161 30.1324 27.1598C30.7659 26.4796 31.388 26.3008 31.6785 26.2544C32.2353 26.6252 32.7044 27.1134 33.0531 27.6848C33.4074 28.2724 33.5963 28.9451 33.6 29.6315V33.5976ZM14.0621 25.1658H10.7013C10.5156 25.1658 10.3376 25.2397 10.2063 25.3712C10.075 25.5027 10.0013 25.681 10.0013 25.867V27.8829C10.0013 28.0689 10.075 28.2472 10.2063 28.3787C10.3376 28.5102 10.5156 28.5841 10.7013 28.5841H14.0621C14.2478 28.5841 14.4258 28.5102 14.5571 28.3787C14.6884 28.2472 14.7621 28.0689 14.7621 27.8829V25.867C14.7621 25.681 14.6884 25.5027 14.5571 25.3712C14.4258 25.2397 14.2478 25.1658 14.0621 25.1658ZM13.3621 27.1817H11.4013V26.5682H13.3621V27.1817ZM14.0621 29.8857H10.7013C10.5156 29.8857 10.3376 29.9596 10.2063 30.0911C10.075 30.2226 10.0013 30.4009 10.0013 30.5869V32.6028C10.0013 32.7888 10.075 32.9671 10.2063 33.0986C10.3376 33.2301 10.5156 33.304 10.7013 33.304H14.0621C14.2478 33.304 14.4258 33.2301 14.5571 33.0986C14.6884 32.9671 14.7621 32.7888 14.7621 32.6028V30.5869C14.7625 30.4946 14.7446 30.4031 14.7096 30.3177C14.6746 30.2324 14.6231 30.1547 14.558 30.0894C14.493 30.024 14.4157 29.9721 14.3306 29.9367C14.2455 29.9013 14.1543 29.8831 14.0621 29.8831V29.8857ZM13.3621 31.9016H11.4013V31.2881H13.3621V31.9016ZM23.2925 25.1702C22.6575 25.17 22.0367 25.3585 21.5086 25.7118C20.9805 26.0651 20.5689 26.5673 20.3258 27.155C20.0827 27.7426 20.019 28.3893 20.1429 29.0132C20.2667 29.6371 20.5725 30.2102 21.0215 30.6599C21.4706 31.1097 22.0427 31.416 22.6655 31.5401C23.2884 31.6642 23.9339 31.6004 24.5206 31.3569C25.1072 31.1134 25.6086 30.7011 25.9613 30.1721C26.314 29.6431 26.5022 29.0212 26.502 28.3851C26.502 27.5321 26.164 26.7139 25.5622 26.1103C24.9605 25.5066 24.1441 25.1669 23.2925 25.1658V25.1702ZM23.2925 30.1986C22.9344 30.1988 22.5843 30.0926 22.2865 29.8934C21.9886 29.6942 21.7565 29.4111 21.6193 29.0797C21.4821 28.7484 21.4462 28.3837 21.5159 28.0319C21.5857 27.68 21.758 27.3568 22.0112 27.1031C22.2643 26.8494 22.5869 26.6766 22.9381 26.6066C23.2893 26.5365 23.6534 26.5724 23.9842 26.7096C24.3151 26.8469 24.5979 27.0793 24.7968 27.3775C24.9958 27.6758 25.102 28.0264 25.102 28.3851C25.1004 28.865 24.9091 29.3248 24.57 29.6638C24.2309 30.0028 23.7716 30.1935 23.2925 30.1942V30.1986Z" fill="white"/>
</svg>
