<svg width="42" height="11" viewBox="0 0 42 11" fill="none" xmlns="http://www.w3.org/2000/svg">
<path d="M30.1403 8.76416C30.1401 9.20623 30.273 9.63842 30.5223 10.0061C30.7715 10.3737 31.1258 10.6603 31.5404 10.8296C31.9551 10.9989 32.4114 11.0433 32.8516 10.9572C33.2918 10.871 33.6962 10.6582 34.0137 10.3457C34.3311 10.0332 34.5473 9.63497 34.635 9.20141C34.7226 8.76785 34.6777 8.31843 34.506 7.91C34.3343 7.50156 34.0434 7.15246 33.6702 6.90684C33.2971 6.66122 32.8583 6.53012 32.4095 6.53012C31.8079 6.5306 31.2312 6.7661 30.8058 7.18493C30.3803 7.60376 30.141 8.17172 30.1403 8.76416V8.76416ZM7.0096 6.53012C7.45818 6.5303 7.89664 6.66148 8.26953 6.90706C8.64243 7.15265 8.93301 7.50162 9.10455 7.90986C9.27609 8.31809 9.32088 8.76725 9.23326 9.20055C9.14563 9.63385 8.92953 10.0318 8.61227 10.3442C8.29501 10.6565 7.89084 10.8692 7.45087 10.9553C7.01089 11.0415 6.55486 10.9972 6.14045 10.8281C5.72603 10.6589 5.37183 10.3726 5.12263 10.0052C4.87343 9.63787 4.74042 9.20597 4.74042 8.76416C4.74114 8.17188 4.98035 7.60406 5.40558 7.18525C5.8308 6.76644 6.40733 6.53084 7.00868 6.53012H7.0096ZM0 0.0900458H6.14837L4.90407 4.5275L13.3152 0H18.5594L18.6746 3.12279L21.6002 4.45187L22.6735 3.1516H24.1016L24.3905 4.59234C36.967 3.42174 42 7.21897 42 7.21897C42 7.21897 41.3125 7.6692 39.6293 7.97446C39.2746 8.27251 39.2947 9.27472 39.2947 9.27472H41.5072V10.7155H36.7531V8.24099C36.5849 8.2473 36.3462 8.27791 36.1076 8.28332C36.037 7.75635 35.8512 7.25075 35.5629 6.80139C35.2747 6.35202 34.8909 5.96959 34.438 5.68048C33.9852 5.39137 33.474 5.20246 32.9398 5.12679C32.4057 5.05111 31.8612 5.09046 31.3439 5.24214C30.8267 5.39382 30.349 5.6542 29.9439 6.00533C29.5387 6.35646 29.2157 6.78997 28.9972 7.27597C28.7786 7.76196 28.6697 8.28887 28.678 8.82034C28.6862 9.35181 28.8114 9.87519 29.045 10.3544H10.3722C10.6144 9.8569 10.7397 9.31212 10.7388 8.76044C10.738 8.20877 10.6111 7.66435 10.3675 7.16758C10.1239 6.67082 9.76981 6.23445 9.33158 5.89085C8.89336 5.54725 8.38221 5.30524 7.83605 5.18277C7.2899 5.0603 6.72276 5.06051 6.1767 5.1834C5.63064 5.30628 5.11968 5.54868 4.68172 5.89261C4.24376 6.23654 3.89005 6.67317 3.64682 7.17012C3.40359 7.66707 3.27709 8.21158 3.27669 8.76326C3.27669 8.87492 3.28218 8.98477 3.29224 9.09373H0.000914277L0 0.0900458Z" fill="white"/>
</svg>
