<svg width="28" height="33" viewBox="0 0 28 33" fill="none" xmlns="http://www.w3.org/2000/svg">
<path d="M7.62462 1.47808C7.74026 0.786635 7.27154 0.132711 6.57772 0.0174663C5.88388 -0.0977681 5.22768 0.369317 5.11204 1.06076L0.0175295 31.5219C-0.0981158 32.2134 0.370604 32.8673 1.06445 32.9825C1.75827 33.0978 2.41449 32.6307 2.53011 31.9392L4.23675 21.735C6.29052 22.0329 8.50747 22.1318 10.2554 23.3535C11.3369 24.1277 12.5874 24.6347 13.9041 24.8329C16.3637 25.203 18.5647 23.8551 20.9946 24.2394L24.278 24.7319C24.9398 24.8314 25.6278 24.3252 25.7274 23.6657L27.9792 8.6027L27.9894 8.59255C28.0813 7.9318 27.5647 7.25193 26.9017 7.16088L23.6183 6.66842C21.1658 6.30598 18.9604 7.61452 16.5304 7.2502C15.4405 7.0868 14.4034 6.6739 13.5006 6.04397C11.6189 4.73125 9.37708 4.51368 7.16879 4.20363L7.62462 1.47808ZM6.1225 10.4596L6.95971 5.45378C8.48661 5.65973 10.1014 5.77982 11.5163 6.38919L10.7655 11.3778C9.3123 10.787 7.67449 10.6708 6.1225 10.4596ZM4.44636 20.4815L5.28408 15.4728C6.86375 15.6912 8.5375 15.7993 10.0185 16.4058L10.782 11.3892C12.4579 12.0731 13.7344 13.2494 15.6046 13.5247L16.3688 8.49863C18.2487 8.78161 19.804 8.05014 21.611 7.90463L20.8469 12.8952C19.038 13.049 17.4732 13.8106 15.5995 13.5298L14.8711 18.5504C12.9959 18.2735 11.7174 17.0909 10.0338 16.4084L9.26961 21.4243C7.75453 20.8189 6.05345 20.7106 4.44636 20.4815ZM14.8735 18.5511C16.7428 18.8335 18.315 18.0662 20.1235 17.9162L20.8469 12.8952C22.5141 12.7421 24.2212 13.1778 25.8599 13.4257L25.1466 18.4416C23.5054 18.1953 21.7952 17.7594 20.126 17.9162L19.3618 22.9321C17.5566 23.0532 15.961 23.8467 14.1094 23.5667L14.8735 18.5511Z" fill="white"/>
</svg>
